<mxfile host="app.diagrams.net" modified="2022-06-29T02:10:50.974Z" agent="5.0 (Windows NT 10.0; Win64; x64) AppleWebKit/537.36 (KHTML, like Gecko) Chrome/102.0.0.0 Safari/537.36" etag="zftbIAIsmarBwHfp74Ob" version="20.0.3" type="github">
  <diagram name="Page-1" id="13e1069c-82ec-6db2-03f1-153e76fe0fe0">
    <mxGraphModel dx="677" dy="336" grid="1" gridSize="10" guides="1" tooltips="1" connect="1" arrows="1" fold="1" page="1" pageScale="1" pageWidth="1100" pageHeight="850" background="none" math="0" shadow="0">
      <root>
        <mxCell id="0" />
        <mxCell id="1" parent="0" />
        <mxCell id="denZKagu3ZkojtByg-fw-1" value=":vue-router" style="shape=umlLifeline;perimeter=lifelinePerimeter;whiteSpace=wrap;html=1;container=1;collapsible=0;recursiveResize=0;outlineConnect=0;rounded=1;shadow=0;comic=0;labelBackgroundColor=none;strokeWidth=1;fontFamily=Verdana;fontSize=12;align=center;" vertex="1" parent="1">
          <mxGeometry x="302" y="125" width="100" height="600" as="geometry" />
        </mxCell>
        <mxCell id="denZKagu3ZkojtByg-fw-2" value="" style="html=1;points=[];perimeter=orthogonalPerimeter;rounded=0;shadow=0;comic=0;labelBackgroundColor=none;strokeWidth=1;fontFamily=Verdana;fontSize=12;align=center;" vertex="1" parent="denZKagu3ZkojtByg-fw-1">
          <mxGeometry x="45" y="100" width="10" height="110" as="geometry" />
        </mxCell>
        <mxCell id="denZKagu3ZkojtByg-fw-3" value="before&lt;br&gt;navigation guard" style="html=1;verticalAlign=bottom;endArrow=block;labelBackgroundColor=none;fontFamily=Verdana;fontSize=12;elbow=vertical;edgeStyle=orthogonalEdgeStyle;curved=1;exitX=1.038;exitY=0.345;exitPerimeter=0;" edge="1" parent="denZKagu3ZkojtByg-fw-1">
          <mxGeometry x="-0.4175" y="-6" relative="1" as="geometry">
            <mxPoint x="55.00333333333356" y="120.83000000000021" as="sourcePoint" />
            <mxPoint x="58" y="195" as="targetPoint" />
            <Array as="points">
              <mxPoint x="108" y="121" />
              <mxPoint x="108" y="196" />
            </Array>
            <mxPoint x="6" y="-6" as="offset" />
          </mxGeometry>
        </mxCell>
        <mxCell id="denZKagu3ZkojtByg-fw-57" value="getter(&#39;userID, Token&#39;)" style="html=1;verticalAlign=bottom;endArrow=block;labelBackgroundColor=none;fontFamily=Verdana;fontSize=12;edgeStyle=elbowEdgeStyle;elbow=vertical;" edge="1" parent="denZKagu3ZkojtByg-fw-1">
          <mxGeometry relative="1" as="geometry">
            <mxPoint x="54.999999999999886" y="147.99999999999994" as="sourcePoint" />
            <mxPoint x="210.88" y="148.0800000000001" as="targetPoint" />
          </mxGeometry>
        </mxCell>
        <mxCell id="denZKagu3ZkojtByg-fw-4" value=":vuex" style="shape=umlLifeline;perimeter=lifelinePerimeter;whiteSpace=wrap;html=1;container=1;collapsible=0;recursiveResize=0;outlineConnect=0;rounded=1;shadow=0;comic=0;labelBackgroundColor=none;strokeWidth=1;fontFamily=Verdana;fontSize=12;align=center;" vertex="1" parent="1">
          <mxGeometry x="462" y="125" width="100" height="795" as="geometry" />
        </mxCell>
        <mxCell id="denZKagu3ZkojtByg-fw-5" value="" style="html=1;points=[];perimeter=orthogonalPerimeter;rounded=0;shadow=0;comic=0;labelBackgroundColor=none;strokeWidth=1;fontFamily=Verdana;fontSize=12;align=center;" vertex="1" parent="denZKagu3ZkojtByg-fw-4">
          <mxGeometry x="45" y="220" width="10" height="350" as="geometry" />
        </mxCell>
        <mxCell id="denZKagu3ZkojtByg-fw-8" value="return" style="html=1;verticalAlign=bottom;endArrow=open;dashed=1;endSize=8;labelBackgroundColor=none;fontFamily=Verdana;fontSize=12;edgeStyle=elbowEdgeStyle;elbow=vertical;entryX=1.4;entryY=0.935;entryDx=0;entryDy=0;entryPerimeter=0;" edge="1" parent="denZKagu3ZkojtByg-fw-4" target="denZKagu3ZkojtByg-fw-14">
          <mxGeometry relative="1" as="geometry">
            <mxPoint x="-240" y="540" as="targetPoint" />
            <Array as="points">
              <mxPoint x="-134" y="530" />
            </Array>
            <mxPoint x="44.99999999999977" y="530.8299999999999" as="sourcePoint" />
          </mxGeometry>
        </mxCell>
        <mxCell id="denZKagu3ZkojtByg-fw-20" value="functionAPI(&#39;requestMyInfo&#39;)" style="html=1;verticalAlign=bottom;endArrow=block;labelBackgroundColor=none;fontFamily=Verdana;fontSize=12;edgeStyle=elbowEdgeStyle;elbow=vertical;" edge="1" parent="denZKagu3ZkojtByg-fw-4">
          <mxGeometry relative="1" as="geometry">
            <mxPoint x="55" y="253" as="sourcePoint" />
            <mxPoint x="348" y="253" as="targetPoint" />
          </mxGeometry>
        </mxCell>
        <mxCell id="denZKagu3ZkojtByg-fw-51" value="" style="html=1;points=[];perimeter=orthogonalPerimeter;rounded=0;shadow=0;comic=0;labelBackgroundColor=none;strokeWidth=1;fontFamily=Verdana;fontSize=12;align=center;" vertex="1" parent="denZKagu3ZkojtByg-fw-4">
          <mxGeometry x="45" y="595" width="10" height="65" as="geometry" />
        </mxCell>
        <mxCell id="denZKagu3ZkojtByg-fw-50" value="mutation &lt;br&gt;SET_MY_INFO(response.data.myinfo)" style="html=1;verticalAlign=bottom;endArrow=block;labelBackgroundColor=none;fontFamily=Verdana;fontSize=12;elbow=vertical;edgeStyle=orthogonalEdgeStyle;curved=1;entryX=1;entryY=0.286;entryPerimeter=0;exitX=1.038;exitY=0.345;exitPerimeter=0;" edge="1" parent="denZKagu3ZkojtByg-fw-4">
          <mxGeometry x="-0.1086" y="88" relative="1" as="geometry">
            <mxPoint x="55.00333333333356" y="610.0400000000002" as="sourcePoint" />
            <mxPoint x="60.00333333333356" y="648.3733333333334" as="targetPoint" />
            <Array as="points">
              <mxPoint x="100" y="610.04" />
              <mxPoint x="100" y="648.04" />
            </Array>
            <mxPoint as="offset" />
          </mxGeometry>
        </mxCell>
        <mxCell id="denZKagu3ZkojtByg-fw-54" value="computed : store.getter(&#39;MY_INFO&#39;)" style="html=1;verticalAlign=bottom;endArrow=open;dashed=1;endSize=8;labelBackgroundColor=none;fontFamily=Verdana;fontSize=12;edgeStyle=elbowEdgeStyle;elbow=vertical;entryX=1.4;entryY=0.935;entryDx=0;entryDy=0;entryPerimeter=0;" edge="1" parent="denZKagu3ZkojtByg-fw-4">
          <mxGeometry relative="1" as="geometry">
            <mxPoint x="-268" y="744.1000000000001" as="targetPoint" />
            <Array as="points">
              <mxPoint x="-134" y="744" />
            </Array>
            <mxPoint x="44.99999999999977" y="744.8299999999999" as="sourcePoint" />
          </mxGeometry>
        </mxCell>
        <mxCell id="denZKagu3ZkojtByg-fw-58" value="return userID, Token" style="html=1;verticalAlign=bottom;endArrow=open;dashed=1;endSize=8;labelBackgroundColor=none;fontFamily=Verdana;fontSize=12;edgeStyle=elbowEdgeStyle;elbow=vertical;" edge="1" parent="denZKagu3ZkojtByg-fw-4">
          <mxGeometry relative="1" as="geometry">
            <mxPoint x="-105.40000000000012" y="175" as="targetPoint" />
            <Array as="points">
              <mxPoint x="-83.50000000000003" y="175" />
            </Array>
            <mxPoint x="48" y="175" as="sourcePoint" />
          </mxGeometry>
        </mxCell>
        <mxCell id="denZKagu3ZkojtByg-fw-9" value=":api" style="shape=umlLifeline;perimeter=lifelinePerimeter;whiteSpace=wrap;html=1;container=1;collapsible=0;recursiveResize=0;outlineConnect=0;rounded=1;shadow=0;comic=0;labelBackgroundColor=none;strokeWidth=1;fontFamily=Verdana;fontSize=12;align=center;" vertex="1" parent="1">
          <mxGeometry x="765" y="125" width="100" height="795" as="geometry" />
        </mxCell>
        <mxCell id="denZKagu3ZkojtByg-fw-11" value=":api-server" style="shape=umlLifeline;perimeter=lifelinePerimeter;whiteSpace=wrap;html=1;container=1;collapsible=0;recursiveResize=0;outlineConnect=0;rounded=1;shadow=0;comic=0;labelBackgroundColor=none;strokeWidth=1;fontFamily=Verdana;fontSize=12;align=center;" vertex="1" parent="1">
          <mxGeometry x="1026" y="130" width="100" height="790" as="geometry" />
        </mxCell>
        <mxCell id="denZKagu3ZkojtByg-fw-12" value="" style="html=1;points=[];perimeter=orthogonalPerimeter;rounded=0;shadow=0;comic=0;labelBackgroundColor=none;strokeWidth=1;fontFamily=Verdana;fontSize=12;align=center;" vertex="1" parent="denZKagu3ZkojtByg-fw-11">
          <mxGeometry x="45" y="490" width="10" height="50" as="geometry" />
        </mxCell>
        <mxCell id="denZKagu3ZkojtByg-fw-22" value="response(myinfo)" style="html=1;verticalAlign=bottom;endArrow=open;dashed=1;endSize=8;labelBackgroundColor=none;fontFamily=Verdana;fontSize=12;edgeStyle=elbowEdgeStyle;elbow=vertical;entryX=1.3;entryY=0.906;entryDx=0;entryDy=0;entryPerimeter=0;" edge="1" parent="denZKagu3ZkojtByg-fw-11" target="denZKagu3ZkojtByg-fw-17">
          <mxGeometry relative="1" as="geometry">
            <mxPoint x="-248" y="540" as="targetPoint" />
            <Array as="points" />
            <mxPoint x="42" y="539" as="sourcePoint" />
          </mxGeometry>
        </mxCell>
        <mxCell id="denZKagu3ZkojtByg-fw-13" value=":vue(view)" style="shape=umlLifeline;perimeter=lifelinePerimeter;whiteSpace=wrap;html=1;container=1;collapsible=0;recursiveResize=0;outlineConnect=0;rounded=1;shadow=0;comic=0;labelBackgroundColor=none;strokeWidth=1;fontFamily=Verdana;fontSize=12;align=center;" vertex="1" parent="1">
          <mxGeometry x="120" y="125" width="130" height="795" as="geometry" />
        </mxCell>
        <mxCell id="denZKagu3ZkojtByg-fw-14" value="" style="html=1;points=[];perimeter=orthogonalPerimeter;rounded=0;shadow=0;comic=0;labelBackgroundColor=none;strokeWidth=1;fontFamily=Verdana;fontSize=12;align=center;" vertex="1" parent="denZKagu3ZkojtByg-fw-13">
          <mxGeometry x="60" y="100" width="10" height="460" as="geometry" />
        </mxCell>
        <mxCell id="denZKagu3ZkojtByg-fw-15" value="next(&#39;MyPage&#39;)" style="html=1;verticalAlign=bottom;endArrow=open;dashed=1;endSize=8;labelBackgroundColor=none;fontFamily=Verdana;fontSize=12;edgeStyle=elbowEdgeStyle;elbow=vertical;" edge="1" parent="denZKagu3ZkojtByg-fw-13">
          <mxGeometry relative="1" as="geometry">
            <mxPoint x="70" y="210" as="targetPoint" />
            <Array as="points">
              <mxPoint x="130" y="210" />
            </Array>
            <mxPoint x="231.5" y="210" as="sourcePoint" />
          </mxGeometry>
        </mxCell>
        <mxCell id="denZKagu3ZkojtByg-fw-16" value="인증 필(토큰) API&lt;br&gt;요청" style="rounded=1;whiteSpace=wrap;html=1;" vertex="1" parent="denZKagu3ZkojtByg-fw-13">
          <mxGeometry x="-80" y="310" width="120" height="60" as="geometry" />
        </mxCell>
        <mxCell id="denZKagu3ZkojtByg-fw-52" value="" style="html=1;points=[];perimeter=orthogonalPerimeter;rounded=0;shadow=0;comic=0;labelBackgroundColor=none;strokeWidth=1;fontFamily=Verdana;fontSize=12;align=center;" vertex="1" parent="denZKagu3ZkojtByg-fw-13">
          <mxGeometry x="60" y="715" width="10" height="45" as="geometry" />
        </mxCell>
        <mxCell id="denZKagu3ZkojtByg-fw-17" value="" style="html=1;points=[];perimeter=orthogonalPerimeter;rounded=0;shadow=0;comic=0;labelBackgroundColor=none;strokeWidth=1;fontFamily=Verdana;fontSize=12;align=center;" vertex="1" parent="1">
          <mxGeometry x="810" y="375" width="10" height="325" as="geometry" />
        </mxCell>
        <mxCell id="denZKagu3ZkojtByg-fw-18" value="rourter.push(&#39;MyPage&#39;)" style="html=1;verticalAlign=bottom;endArrow=block;entryX=0;entryY=0;labelBackgroundColor=none;fontFamily=Verdana;fontSize=12;edgeStyle=elbowEdgeStyle;elbow=vertical;" edge="1" parent="1" source="denZKagu3ZkojtByg-fw-14" target="denZKagu3ZkojtByg-fw-2">
          <mxGeometry relative="1" as="geometry">
            <mxPoint x="250" y="235" as="sourcePoint" />
          </mxGeometry>
        </mxCell>
        <mxCell id="denZKagu3ZkojtByg-fw-19" value="created() : dispatch(&#39;FETCH_MEMBER_INFO&#39;)" style="html=1;verticalAlign=bottom;endArrow=block;labelBackgroundColor=none;fontFamily=Verdana;fontSize=12;edgeStyle=elbowEdgeStyle;elbow=vertical;entryX=0.3;entryY=0.031;entryDx=0;entryDy=0;entryPerimeter=0;" edge="1" parent="1">
          <mxGeometry relative="1" as="geometry">
            <mxPoint x="190" y="364" as="sourcePoint" />
            <mxPoint x="507.0000000000001" y="364.85" as="targetPoint" />
            <Array as="points">
              <mxPoint x="417" y="364" />
            </Array>
          </mxGeometry>
        </mxCell>
        <mxCell id="denZKagu3ZkojtByg-fw-21" value="axios &lt;br&gt;req, res interceptor(callback(config){&lt;br&gt;&lt;font style=&quot;font-family: Helvetica;&quot; color=&quot;#000000&quot;&gt;config.headers.&lt;/font&gt;&lt;span style=&quot;color: rgb(255, 0, 0); background-color: var(--color-canvas-subtle); font-family: ui-monospace, SFMono-Regular, &amp;quot;SF Mono&amp;quot;, Menlo, Consolas, &amp;quot;Liberation Mono&amp;quot;, monospace; font-size: 13.6px; text-align: start;&quot;&gt;&lt;font color=&quot;#000000&quot;&gt;Authorization = TOKEN&lt;/font&gt;&lt;/span&gt;&lt;br&gt;})" style="html=1;verticalAlign=bottom;endArrow=block;labelBackgroundColor=none;fontFamily=Verdana;fontSize=12;elbow=vertical;edgeStyle=orthogonalEdgeStyle;curved=1;exitX=1.038;exitY=0.345;exitPerimeter=0;" edge="1" parent="1" target="denZKagu3ZkojtByg-fw-17">
          <mxGeometry x="0.5259" y="65" relative="1" as="geometry">
            <mxPoint x="820.0033333333336" y="395.83000000000015" as="sourcePoint" />
            <mxPoint x="824" y="480" as="targetPoint" />
            <Array as="points">
              <mxPoint x="875" y="396" />
              <mxPoint x="875" y="560" />
            </Array>
            <mxPoint as="offset" />
          </mxGeometry>
        </mxCell>
        <mxCell id="denZKagu3ZkojtByg-fw-28" value="쿠키, 로컬, 세션" style="rounded=0;whiteSpace=wrap;html=1;fontColor=#FF0000;" vertex="1" parent="1">
          <mxGeometry x="610" y="40" width="120" height="60" as="geometry" />
        </mxCell>
        <mxCell id="denZKagu3ZkojtByg-fw-30" value=":storage" style="shape=umlLifeline;perimeter=lifelinePerimeter;whiteSpace=wrap;html=1;container=1;collapsible=0;recursiveResize=0;outlineConnect=0;rounded=1;shadow=0;comic=0;labelBackgroundColor=none;strokeWidth=1;fontFamily=Verdana;fontSize=12;align=center;" vertex="1" parent="1">
          <mxGeometry x="624" y="125" width="100" height="795" as="geometry" />
        </mxCell>
        <mxCell id="denZKagu3ZkojtByg-fw-33" value="return storage(&#39;TOKEN&#39;)" style="html=1;verticalAlign=bottom;endArrow=open;dashed=1;endSize=8;labelBackgroundColor=none;fontFamily=Verdana;fontSize=12;edgeStyle=elbowEdgeStyle;elbow=vertical;" edge="1" parent="denZKagu3ZkojtByg-fw-30">
          <mxGeometry relative="1" as="geometry">
            <mxPoint x="-106.90000000000009" y="359" as="targetPoint" />
            <Array as="points">
              <mxPoint x="-85" y="359" />
            </Array>
            <mxPoint x="49.5" y="359" as="sourcePoint" />
          </mxGeometry>
        </mxCell>
        <mxCell id="denZKagu3ZkojtByg-fw-40" value="response(myinfo)" style="html=1;verticalAlign=bottom;endArrow=open;dashed=1;endSize=8;labelBackgroundColor=none;fontFamily=Verdana;fontSize=12;edgeStyle=elbowEdgeStyle;elbow=vertical;" edge="1" parent="denZKagu3ZkojtByg-fw-30">
          <mxGeometry relative="1" as="geometry">
            <mxPoint x="-104" y="566" as="targetPoint" />
            <Array as="points">
              <mxPoint x="-34" y="565.0000000000001" />
            </Array>
            <mxPoint x="186" y="565" as="sourcePoint" />
          </mxGeometry>
        </mxCell>
        <mxCell id="denZKagu3ZkojtByg-fw-32" value="store.getter(&#39;GET_TOKEN&#39;)" style="html=1;verticalAlign=bottom;endArrow=block;labelBackgroundColor=none;fontFamily=Verdana;fontSize=12;edgeStyle=elbowEdgeStyle;elbow=vertical;" edge="1" parent="1">
          <mxGeometry relative="1" as="geometry">
            <mxPoint x="810" y="414" as="sourcePoint" />
            <mxPoint x="517" y="414.20000000000005" as="targetPoint" />
          </mxGeometry>
        </mxCell>
        <mxCell id="denZKagu3ZkojtByg-fw-34" value="storage.get(&#39;TOKEN&#39;)" style="html=1;verticalAlign=bottom;endArrow=block;labelBackgroundColor=none;fontFamily=Verdana;fontSize=12;edgeStyle=elbowEdgeStyle;elbow=vertical;" edge="1" parent="1">
          <mxGeometry relative="1" as="geometry">
            <mxPoint x="517.62" y="449.32" as="sourcePoint" />
            <mxPoint x="673.5" y="449.4" as="targetPoint" />
          </mxGeometry>
        </mxCell>
        <mxCell id="denZKagu3ZkojtByg-fw-38" value="return TOKEN" style="html=1;verticalAlign=bottom;endArrow=open;dashed=1;endSize=8;labelBackgroundColor=none;fontFamily=Verdana;fontSize=12;edgeStyle=elbowEdgeStyle;elbow=vertical;" edge="1" parent="1">
          <mxGeometry relative="1" as="geometry">
            <mxPoint x="810.5" y="516" as="targetPoint" />
            <Array as="points">
              <mxPoint x="521" y="516" />
            </Array>
            <mxPoint x="520" y="516" as="sourcePoint" />
          </mxGeometry>
        </mxCell>
        <mxCell id="denZKagu3ZkojtByg-fw-53" value="computed : store.getter(&#39;MY_INFO&#39;)" style="html=1;verticalAlign=bottom;endArrow=block;labelBackgroundColor=none;fontFamily=Verdana;fontSize=12;edgeStyle=elbowEdgeStyle;elbow=vertical;entryX=0.3;entryY=0.031;entryDx=0;entryDy=0;entryPerimeter=0;" edge="1" parent="1">
          <mxGeometry relative="1" as="geometry">
            <mxPoint x="192.5" y="849.9999999999999" as="sourcePoint" />
            <mxPoint x="511.5" y="850.8500000000001" as="targetPoint" />
            <Array as="points">
              <mxPoint x="421.5" y="850" />
            </Array>
          </mxGeometry>
        </mxCell>
        <mxCell id="denZKagu3ZkojtByg-fw-10" value="kkulcon-api-myinfo" style="html=1;verticalAlign=bottom;endArrow=block;labelBackgroundColor=none;fontFamily=Verdana;fontSize=12;edgeStyle=elbowEdgeStyle;elbow=vertical;exitX=1.1;exitY=0.751;exitDx=0;exitDy=0;exitPerimeter=0;entryX=0.457;entryY=-0.014;entryDx=0;entryDy=0;entryPerimeter=0;" edge="1" parent="1" target="denZKagu3ZkojtByg-fw-12" source="denZKagu3ZkojtByg-fw-17">
          <mxGeometry relative="1" as="geometry">
            <mxPoint x="824" y="621" as="sourcePoint" />
            <mxPoint x="1113" y="620" as="targetPoint" />
          </mxGeometry>
        </mxCell>
        <mxCell id="denZKagu3ZkojtByg-fw-62" value="&lt;font color=&quot;#ff0000&quot;&gt;(&lt;/font&gt;&lt;span style=&quot;color: rgb(255, 0, 0);&quot;&gt;menu-&lt;/span&gt;&lt;font color=&quot;#ff0000&quot;&gt;auth == true) &amp;amp;&amp;amp; hasUserID &amp;amp;&amp;amp; hasToken&lt;/font&gt;" style="text;html=1;strokeColor=none;fillColor=none;align=center;verticalAlign=middle;whiteSpace=wrap;rounded=0;" vertex="1" parent="1">
          <mxGeometry x="320" y="180" width="190" height="30" as="geometry" />
        </mxCell>
      </root>
    </mxGraphModel>
  </diagram>
</mxfile>
